<mxfile host="Electron" modified="2024-03-11T13:09:27.224Z" agent="Mozilla/5.0 (Macintosh; Intel Mac OS X 10_15_7) AppleWebKit/537.36 (KHTML, like Gecko) draw.io/22.0.2 Chrome/114.0.5735.289 Electron/25.8.4 Safari/537.36" etag="gPBm6pQR2fdagMqY-7nu" version="22.0.2" type="device">
  <diagram name="Page-1" id="arfheUf_QdTFLJMxxaF5">
    <mxGraphModel dx="652" dy="454" grid="1" gridSize="10" guides="1" tooltips="1" connect="1" arrows="1" fold="1" page="1" pageScale="1" pageWidth="827" pageHeight="1169" math="0" shadow="0">
      <root>
        <mxCell id="0" />
        <mxCell id="1" parent="0" />
        <mxCell id="Jnq-gatuO4-kZyc59Dnw-1" value="" style="whiteSpace=wrap;html=1;aspect=fixed;fillStyle=auto;fillColor=none;" vertex="1" parent="1">
          <mxGeometry x="160" y="280" width="320" height="320" as="geometry" />
        </mxCell>
        <mxCell id="Jnq-gatuO4-kZyc59Dnw-3" value="2b" style="rounded=0;orthogonalLoop=1;jettySize=auto;html=1;exitX=0;exitY=0;exitDx=0;exitDy=0;entryX=0;entryY=0;entryDx=0;entryDy=0;endArrow=openThin;endFill=0;dashed=1;dashPattern=1 4;strokeWidth=2;labelBorderColor=none;" edge="1" parent="1" source="Jnq-gatuO4-kZyc59Dnw-2" target="Jnq-gatuO4-kZyc59Dnw-1">
          <mxGeometry relative="1" as="geometry" />
        </mxCell>
        <mxCell id="Jnq-gatuO4-kZyc59Dnw-4" value="1a" style="rounded=0;orthogonalLoop=1;jettySize=auto;html=1;exitX=0;exitY=1;exitDx=0;exitDy=0;entryX=0;entryY=1;entryDx=0;entryDy=0;endArrow=openThin;endFill=0;dashed=1;dashPattern=1 4;strokeWidth=2;" edge="1" parent="1" source="Jnq-gatuO4-kZyc59Dnw-2" target="Jnq-gatuO4-kZyc59Dnw-1">
          <mxGeometry relative="1" as="geometry" />
        </mxCell>
        <mxCell id="Jnq-gatuO4-kZyc59Dnw-5" value="4d" style="rounded=0;orthogonalLoop=1;jettySize=auto;html=1;exitX=1;exitY=0;exitDx=0;exitDy=0;entryX=1;entryY=0;entryDx=0;entryDy=0;endArrow=openThin;endFill=0;dashed=1;dashPattern=1 4;strokeWidth=2;" edge="1" parent="1" source="Jnq-gatuO4-kZyc59Dnw-2" target="Jnq-gatuO4-kZyc59Dnw-1">
          <mxGeometry relative="1" as="geometry" />
        </mxCell>
        <mxCell id="Jnq-gatuO4-kZyc59Dnw-6" value="6e" style="rounded=0;orthogonalLoop=1;jettySize=auto;html=1;exitX=1;exitY=1;exitDx=0;exitDy=0;entryX=1;entryY=1;entryDx=0;entryDy=0;endArrow=openThin;endFill=0;dashed=1;dashPattern=1 4;strokeWidth=2;" edge="1" parent="1" source="Jnq-gatuO4-kZyc59Dnw-2" target="Jnq-gatuO4-kZyc59Dnw-1">
          <mxGeometry x="-0.0016" relative="1" as="geometry">
            <mxPoint as="offset" />
          </mxGeometry>
        </mxCell>
        <mxCell id="Jnq-gatuO4-kZyc59Dnw-2" value="" style="ellipse;whiteSpace=wrap;html=1;aspect=fixed;" vertex="1" parent="1">
          <mxGeometry x="315" y="435" width="10" height="10" as="geometry" />
        </mxCell>
        <mxCell id="Jnq-gatuO4-kZyc59Dnw-7" value="3c" style="endArrow=openAsync;html=1;rounded=0;endFill=0;dashed=1;" edge="1" parent="1">
          <mxGeometry width="50" height="50" relative="1" as="geometry">
            <mxPoint x="155" y="600" as="sourcePoint" />
            <mxPoint x="155" y="280" as="targetPoint" />
          </mxGeometry>
        </mxCell>
        <mxCell id="Jnq-gatuO4-kZyc59Dnw-9" value="5b" style="endArrow=openAsync;html=1;rounded=0;endFill=0;dashed=1;" edge="1" parent="1">
          <mxGeometry width="50" height="50" relative="1" as="geometry">
            <mxPoint x="160" y="276" as="sourcePoint" />
            <mxPoint x="480" y="276" as="targetPoint" />
          </mxGeometry>
        </mxCell>
        <mxCell id="Jnq-gatuO4-kZyc59Dnw-10" value="7d" style="endArrow=openAsync;html=1;rounded=0;endFill=0;dashed=1;" edge="1" parent="1">
          <mxGeometry width="50" height="50" relative="1" as="geometry">
            <mxPoint x="485" y="280" as="sourcePoint" />
            <mxPoint x="485" y="600" as="targetPoint" />
          </mxGeometry>
        </mxCell>
        <mxCell id="Jnq-gatuO4-kZyc59Dnw-11" value="8a" style="endArrow=openAsync;html=1;rounded=0;endFill=0;startArrow=none;startFill=0;verticalAlign=middle;dashed=1;" edge="1" parent="1">
          <mxGeometry width="50" height="50" relative="1" as="geometry">
            <mxPoint x="160" y="605" as="sourcePoint" />
            <mxPoint x="480" y="605" as="targetPoint" />
          </mxGeometry>
        </mxCell>
        <mxCell id="Jnq-gatuO4-kZyc59Dnw-12" value="315째" style="text;html=1;strokeColor=none;fillColor=none;align=right;verticalAlign=middle;whiteSpace=wrap;rounded=0;" vertex="1" parent="1">
          <mxGeometry x="240" y="390" width="30" height="20" as="geometry" />
        </mxCell>
        <mxCell id="Jnq-gatuO4-kZyc59Dnw-17" value="225째" style="text;html=1;strokeColor=none;fillColor=none;align=left;verticalAlign=middle;whiteSpace=wrap;rounded=0;" vertex="1" parent="1">
          <mxGeometry x="270" y="490" width="30" height="20" as="geometry" />
        </mxCell>
        <mxCell id="Jnq-gatuO4-kZyc59Dnw-18" value="45째" style="text;html=1;strokeColor=none;fillColor=none;align=right;verticalAlign=middle;whiteSpace=wrap;rounded=0;" vertex="1" parent="1">
          <mxGeometry x="340" y="370" width="30" height="20" as="geometry" />
        </mxCell>
        <mxCell id="Jnq-gatuO4-kZyc59Dnw-19" value="135째" style="text;html=1;strokeColor=none;fillColor=none;align=left;verticalAlign=middle;whiteSpace=wrap;rounded=0;" vertex="1" parent="1">
          <mxGeometry x="370" y="470" width="30" height="20" as="geometry" />
        </mxCell>
        <mxCell id="Jnq-gatuO4-kZyc59Dnw-20" value="100 m" style="text;html=1;strokeColor=none;fillColor=none;align=center;verticalAlign=middle;whiteSpace=wrap;rounded=0;" vertex="1" parent="1">
          <mxGeometry x="290" y="240" width="60" height="30" as="geometry" />
        </mxCell>
        <mxCell id="Jnq-gatuO4-kZyc59Dnw-21" value="100 m" style="text;html=1;strokeColor=none;fillColor=none;align=center;verticalAlign=middle;whiteSpace=wrap;rounded=0;" vertex="1" parent="1">
          <mxGeometry x="90" y="425" width="60" height="30" as="geometry" />
        </mxCell>
        <mxCell id="Jnq-gatuO4-kZyc59Dnw-22" value="70.71 m" style="text;html=1;strokeColor=none;fillColor=none;align=center;verticalAlign=middle;whiteSpace=wrap;rounded=0;" vertex="1" parent="1">
          <mxGeometry x="200" y="300" width="60" height="30" as="geometry" />
        </mxCell>
        <mxCell id="Jnq-gatuO4-kZyc59Dnw-24" value="Plot centre" style="text;html=1;strokeColor=none;fillColor=none;align=left;verticalAlign=middle;whiteSpace=wrap;rounded=0;" vertex="1" parent="1">
          <mxGeometry x="330" y="425" width="70" height="30" as="geometry" />
        </mxCell>
      </root>
    </mxGraphModel>
  </diagram>
</mxfile>
